<svg xmlns="http://www.w3.org/2000/svg" xmlns:xlink="http://www.w3.org/1999/xlink" viewBox="0 0 496.54 98.1"><defs><style>.cls-1{fill:#333;}.cls-2{fill:url(#linear-gradient);}</style><linearGradient id="linear-gradient" x1="355.16" y1="80.83" x2="375.02" y2="66.41" gradientUnits="userSpaceOnUse"><stop offset="0" stop-color="#915ff2"/><stop offset="0.5" stop-color="#368eee"/><stop offset="1" stop-color="#00ccb6"/></linearGradient></defs><title>axion-txt-black</title><g id="Layer_2" data-name="Layer 2"><g id="Layer_1-2" data-name="Layer 1"><path class="cls-1" d="M333.91,75a29.28,29.28,0,0,1,49.68-21,48.83,48.83,0,0,0,.3-5.3,47.45,47.45,0,1,0-47.46,47.43,48.6,48.6,0,0,0,6.07-.4A29.19,29.19,0,0,1,333.91,75Z"/><circle class="cls-2" cx="363.19" cy="74.99" r="12.27"/><path class="cls-1" d="M223.46,97.26h-31l-9.81-14.64a12.4,12.4,0,0,0-20.67.06l-9.63,14.58H121.67L156.8,48.51,123.17.84h30.3l9.21,13.32A12.59,12.59,0,0,0,173,19.5a12.41,12.41,0,0,0,10.17-5.43L192.2.84h29L187.64,47.4Z"/><path class="cls-1" d="M241.53,98.09h15.61a13,13,0,0,0,13-13V0H254a12.45,12.45,0,0,0-12.43,12.43Z"/><path class="cls-1" d="M496.54.84V97.26H474.28l-24.84-30a10.3,10.3,0,0,0-18.24,6.57V94a3.28,3.28,0,0,1-3.3,3.27H404.8V.84H427l43.11,52.05V.84Z"/><path class="cls-1" d="M71,0H43.26L0,98.1H17.22A17.93,17.93,0,0,0,33.66,87.33L39,75.3H74.79l5.34,12A18,18,0,0,0,96.57,98.1h17.88ZM47.19,56.7l9.3-21.12L57.84,37l1.56,3.45L66.6,56.7Z"/></g></g></svg>