<svg xmlns="http://www.w3.org/2000/svg" viewBox="0 0 20.5 20.5"><defs><style>.cls-1{fill:#fff;}</style></defs><title>calendar-ic</title><g id="Layer_2" data-name="Layer 2"><g id="Layer_1-2" data-name="Layer 1"><path class="cls-1" d="M19.47,10.27a1,1,0,0,0,1-1V4.94a3.38,3.38,0,0,0-3.37-3.38h-.77V1A1,1,0,1,0,14.3,1v.53H11.24V1A1,1,0,0,0,9.18,1v.53h-3V1A1,1,0,1,0,4.1,1v.53H3.38A3.38,3.38,0,0,0,0,4.94V17.13A3.37,3.37,0,0,0,3.38,20.5h10a1.07,1.07,0,0,0,.75-.32l6.09-6.32a1,1,0,0,0-.74-1.75H15.72a3.38,3.38,0,0,0-3.38,3.37v3h-9a1.32,1.32,0,0,1-1.32-1.31V4.94A1.31,1.31,0,0,1,3.38,3.63H4.1v.53a1,1,0,1,0,2.06,0V3.63h3v.53a1,1,0,0,0,2.06,0V3.63H14.3v.53a1,1,0,1,0,2.06,0V3.63h.77a1.31,1.31,0,0,1,1.31,1.31V9.23A1,1,0,0,0,19.47,10.27Zm-5.06,6.64V15.48a1.31,1.31,0,0,1,1.31-1.31H17Z"/></g></g></svg>