<svg xmlns="http://www.w3.org/2000/svg" viewBox="0 0 10 10.15"><defs><style>.cls-1{fill:#415066;}</style></defs><title>coment-ic-notifications</title><g id="Layer_2" data-name="Layer 2"><g id="Layer_1-2" data-name="Layer 1"><path class="cls-1" d="M8.54,0H1.46A1.46,1.46,0,0,0,0,1.46V6.8A1.46,1.46,0,0,0,1.46,8.26h.36V9.8a.35.35,0,0,0,.55.29L5,8.26H8.54A1.46,1.46,0,0,0,10,6.8V1.46A1.46,1.46,0,0,0,8.54,0ZM6.89,5.59H3.11a.47.47,0,1,1,0-.93H6.89a.47.47,0,1,1,0,.93Zm.87-1.81H2.24a.47.47,0,1,1,0-.94H7.76a.47.47,0,1,1,0,.94Z"/></g></g></svg>