<svg xmlns="http://www.w3.org/2000/svg" viewBox="0 0 9.72 11"><defs><style>.cls-1{fill:#415066;}</style></defs><title>dell-ic-notifications</title><g id="Layer_2" data-name="Layer 2"><g id="Layer_1-2" data-name="Layer 1"><path class="cls-1" d="M3.82.75H5.9v.64h.76V.71A.71.71,0,0,0,6,0H3.77a.71.71,0,0,0-.71.71v.68h.76Z"/><path class="cls-1" d="M8.4,3.6H1.32A.33.33,0,0,0,1,4l.59,6.31a.79.79,0,0,0,.78.73h5a.79.79,0,0,0,.78-.73L8.73,4A.33.33,0,0,0,8.4,3.6Z"/><path class="cls-1" d="M9.71,2.43l-.25-.74A.5.5,0,0,0,9,1.36H.72a.5.5,0,0,0-.46.33L0,2.43a.31.31,0,0,0,.13.37.27.27,0,0,0,.16,0h9.1a.27.27,0,0,0,.16,0A.33.33,0,0,0,9.71,2.43Z"/></g></g></svg>