<svg xmlns="http://www.w3.org/2000/svg" viewBox="0 0 15.56 19.21"><defs><style>.cls-1{fill:#415066;}</style></defs><title>dell-ic</title><g id="Layer_2" data-name="Layer 2"><g id="Layer_1-2" data-name="Layer 1"><path class="cls-1" d="M6.11,1.21H9.45v1h1.21V1.13A1.14,1.14,0,0,0,9.53,0H6A1.14,1.14,0,0,0,4.9,1.13V2.22H6.11Z"/><path class="cls-1" d="M13.45,5.76H2.11a.53.53,0,0,0-.53.57l.95,11.72a1.26,1.26,0,0,0,1.25,1.16h8A1.26,1.26,0,0,0,13,18.05L14,6.33A.53.53,0,0,0,13.45,5.76Z"/><path class="cls-1" d="M15.53,3.9l-.39-1.19a.77.77,0,0,0-.73-.53H1.15a.77.77,0,0,0-.73.53L0,3.9a.5.5,0,0,0,.2.58.6.6,0,0,0,.27.07H15.06a.53.53,0,0,0,.26-.07A.49.49,0,0,0,15.53,3.9Z"/></g></g></svg>