<svg xmlns="http://www.w3.org/2000/svg" viewBox="0 0 11.79 15"><defs><style>.cls-1{fill:#92a5b3;}</style></defs><title>doc-ic</title><g id="Layer_2" data-name="Layer 2"><g id="Layer_1-2" data-name="Layer 1"><path class="cls-1" d="M8.57,3.75A.54.54,0,0,1,8,3.21V0H1.61A1.61,1.61,0,0,0,0,1.61V13.39A1.61,1.61,0,0,0,1.61,15h8.57a1.61,1.61,0,0,0,1.61-1.61V3.75Zm.92,8.51H2.3a.53.53,0,0,1,0-1H9.49a.53.53,0,0,1,0,1Zm0-2.86H2.3a.52.52,0,0,1,0-1H9.49a.52.52,0,0,1,0,1Zm0-2.85H2.3A.52.52,0,0,1,1.78,6a.52.52,0,0,1,.52-.52H9.49A.52.52,0,0,1,10,6,.53.53,0,0,1,9.49,6.55Z"/><polygon class="cls-1" points="9.11 0.31 9.11 2.68 11.47 2.68 9.11 0.31"/></g></g></svg>