<svg xmlns="http://www.w3.org/2000/svg" viewBox="0 0 15 14.95"><defs><style>.cls-1{fill:#92a5b3;}</style></defs><title>img-ic</title><g id="Layer_2" data-name="Layer 2"><g id="Layer_1-2" data-name="Layer 1"><path class="cls-1" d="M11.51,6.56h0a.29.29,0,0,0-.2-.1.27.27,0,0,0-.21.08L6.26,10.65a.43.43,0,0,1-.57,0L4,9.24a.26.26,0,0,0-.35,0h0l-3.6,3v.89A1.83,1.83,0,0,0,1.82,15H13.18A1.83,1.83,0,0,0,15,13.13V10.59Z"/><path class="cls-1" d="M4.51,2.7A1.07,1.07,0,1,0,5.58,3.77,1.07,1.07,0,0,0,4.51,2.7Z"/><path class="cls-1" d="M13.18,0H1.82A1.83,1.83,0,0,0,0,1.82v8.64L3.06,7.92a1.12,1.12,0,0,1,1.43,0l1.44,1.2,4.38-3.86a1.59,1.59,0,0,1,1-.32,1.08,1.08,0,0,1,.8.4L15,8.62V1.82A1.83,1.83,0,0,0,13.18,0ZM4.51,5.8a2,2,0,1,1,2-2A2,2,0,0,1,4.51,5.8Z"/></g></g></svg>