<svg xmlns="http://www.w3.org/2000/svg" viewBox="0 0 19.63 20.5"><defs><style>.cls-1{fill:#fff;}</style></defs><title>notifications-ic</title><g id="Layer_2" data-name="Layer 2"><g id="Layer_1-2" data-name="Layer 1"><path class="cls-1" d="M17.13,12.67l-.79,0V8.93a6.55,6.55,0,0,0-4.08-6A2.51,2.51,0,0,0,10.16,0a2.52,2.52,0,0,0-2,.59,2.48,2.48,0,0,0-.86,1.87,2.71,2.71,0,0,0,0,.4A6.55,6.55,0,0,0,3.28,8.93l0,3.74H2.5A2.46,2.46,0,0,0,0,14.93a2.37,2.37,0,0,0,.64,1.81,2.43,2.43,0,0,0,1.77.77H6.73a3.17,3.17,0,0,0,2.78,3h.31a3,3,0,0,0,2.07-.81,3.09,3.09,0,0,0,1-2.18h4.31A2.41,2.41,0,0,0,19,16.74a2.34,2.34,0,0,0,.65-1.81A2.46,2.46,0,0,0,17.13,12.67Zm-5.87,4.84a1.45,1.45,0,0,1-.49,1,1.42,1.42,0,0,1-1.15.35,1.47,1.47,0,0,1-1.25-1.34Zm4.83-3.2h1.12a.79.79,0,0,1,.78.86.82.82,0,0,1-.83.7H2.47a.82.82,0,0,1-.83-.7.79.79,0,0,1,.78-.86H3.53a1.39,1.39,0,0,0,1.39-1.39v-4a4.9,4.9,0,0,1,9.79,0v4A1.38,1.38,0,0,0,16.09,14.31ZM9,2.46a.85.85,0,0,1,.32-.64A.82.82,0,0,1,10,1.66a.84.84,0,0,1,.65.7s0,.07,0,.1a6,6,0,0,0-.85-.06A5.83,5.83,0,0,0,9,2.46Z"/></g></g></svg>