<svg xmlns="http://www.w3.org/2000/svg" viewBox="0 0 15 15"><defs><style>.cls-1{fill:#fd7348;}</style></defs><title>pin-ac-ic</title><g id="Layer_2" data-name="Layer 2"><g id="Layer_1-2" data-name="Layer 1"><path class="cls-1" d="M14.66,3.3l-3-3a1.14,1.14,0,0,0-1.62,0,1.1,1.1,0,0,0-.34.8,1.17,1.17,0,0,0,.19.63L6,5.18a3.09,3.09,0,0,0-3.53.62,1.09,1.09,0,0,0,0,1.55L4.22,9.14,0,15l5.86-4.22,1.78,1.79a1.1,1.1,0,0,0,1.56,0A3.14,3.14,0,0,0,9.82,9l3.42-4a1.11,1.11,0,0,0,1.42-.15A1.14,1.14,0,0,0,14.66,3.3Z"/></g></g></svg>