<svg xmlns="http://www.w3.org/2000/svg" viewBox="0 0 20.2 18.9"><defs><style>.cls-1{fill:#fff;}</style></defs><title>projects-ic</title><g id="Layer_2" data-name="Layer 2"><g id="Layer_1-2" data-name="Layer 1"><path class="cls-1" d="M16.81,18.9H3.39A3.39,3.39,0,0,1,0,15.51V13.58a3.39,3.39,0,0,1,3.39-3.39H16.81a3.39,3.39,0,0,1,3.39,3.39v1.93A3.39,3.39,0,0,1,16.81,18.9ZM3.39,12.19A1.39,1.39,0,0,0,2,13.58v1.93A1.39,1.39,0,0,0,3.39,16.9H16.81a1.39,1.39,0,0,0,1.39-1.39V13.58a1.39,1.39,0,0,0-1.39-1.39Z"/><path class="cls-1" d="M16.81,8.71H3.39A3.39,3.39,0,0,1,0,5.32V3.39A3.39,3.39,0,0,1,3.39,0H16.81A3.39,3.39,0,0,1,20.2,3.39V5.32A3.39,3.39,0,0,1,16.81,8.71ZM3.39,2A1.39,1.39,0,0,0,2,3.39V5.32A1.39,1.39,0,0,0,3.39,6.71H16.81A1.39,1.39,0,0,0,18.2,5.32V3.39A1.39,1.39,0,0,0,16.81,2Z"/></g></g></svg>