<svg xmlns="http://www.w3.org/2000/svg" viewBox="0 0 15.04 15"><defs><style>.cls-1{fill:#fff;}</style></defs><title>search-ic</title><g id="Layer_2" data-name="Layer 2"><g id="Layer_1-2" data-name="Layer 1"><path class="cls-1" d="M13.21,1.83a6.26,6.26,0,0,0-8.85,0,6.28,6.28,0,0,0-1,7.46L.5,12.11a1.67,1.67,0,0,0,0,2.39,1.68,1.68,0,0,0,2.39,0L5.7,11.7a6.33,6.33,0,0,0,3.09.81,6.18,6.18,0,0,0,4.42-1.84A6.27,6.27,0,0,0,13.21,1.83ZM12.1,9.57a4.69,4.69,0,1,1,0-6.63A4.68,4.68,0,0,1,12.1,9.57Z"/></g></g></svg>