<svg xmlns="http://www.w3.org/2000/svg" viewBox="0 0 15 13.5"><defs><style>.cls-1{fill:#415066;}</style></defs><title>share-ic</title><g id="Layer_2" data-name="Layer 2"><g id="Layer_1-2" data-name="Layer 1"><path class="cls-1" d="M12.37,8.25a2.6,2.6,0,0,0-2.06,1l-5.08-2c0-.06,0-.13,0-.2a2.2,2.2,0,0,0,0-.36l5.21-2.41a2.58,2.58,0,0,0,1.95.9A2.63,2.63,0,1,0,9.75,2.62a2.21,2.21,0,0,0,0,.37L4.58,5.4a2.58,2.58,0,0,0-1.95-.9,2.63,2.63,0,1,0,0,5.25,2.6,2.6,0,0,0,2.06-1l5.08,2a1.23,1.23,0,0,0,0,.19,2.63,2.63,0,1,0,2.62-2.62Z"/></g></g></svg>