<svg xmlns="http://www.w3.org/2000/svg" viewBox="0 0 19.43 7.54"><defs><style>.cls-1{fill:#92a5b3;}</style></defs><title>svg-ic</title><g id="Layer_2" data-name="Layer 2"><g id="Layer_1-2" data-name="Layer 1"><path class="cls-1" d="M1.4,8.73A3.5,3.5,0,0,1,.19,8.15L.8,6.64a3.7,3.7,0,0,0,1,.52,3.48,3.48,0,0,0,1.13.19c.7,0,1.05-.19,1.05-.59a.49.49,0,0,0-.3-.46,5,5,0,0,0-1-.31A10,10,0,0,1,1.5,5.61,2,2,0,0,1,.66,5a1.86,1.86,0,0,1-.35-1.2,2.25,2.25,0,0,1,.32-1.2,2.3,2.3,0,0,1,1-.84,3.56,3.56,0,0,1,1.58-.31,5,5,0,0,1,1.26.16A3.59,3.59,0,0,1,5.53,2L5,3.56A3.52,3.52,0,0,0,3.17,3a1.39,1.39,0,0,0-.8.18.57.57,0,0,0-.25.48.46.46,0,0,0,.3.43,4.46,4.46,0,0,0,1,.3,7.92,7.92,0,0,1,1.23.38,2.15,2.15,0,0,1,.84.64,1.85,1.85,0,0,1,.36,1.2,2.19,2.19,0,0,1-.33,1.18,2.24,2.24,0,0,1-1,.84A3.57,3.57,0,0,1,2.93,9,5.19,5.19,0,0,1,1.4,8.73Z" transform="translate(-0.19 -1.41)"/><path class="cls-1" d="M13.22,1.55,10.44,8.8H8.63L5.86,1.55h2L9.61,6.28,11.4,1.55Z" transform="translate(-0.19 -1.41)"/><path class="cls-1" d="M17.86,5h1.62V8a4.24,4.24,0,0,1-1.28.68A4.53,4.53,0,0,1,16.76,9a3.58,3.58,0,0,1-1.84-.48,3.35,3.35,0,0,1-1.27-1.34,4.07,4.07,0,0,1-.47-1.95,4,4,0,0,1,.47-1.95,3.3,3.3,0,0,1,1.28-1.34,3.63,3.63,0,0,1,1.86-.48,3.71,3.71,0,0,1,1.63.34,3.22,3.22,0,0,1,1.21,1L18.46,3.92a2,2,0,0,0-1.57-.81,1.75,1.75,0,0,0-1.35.56A2.17,2.17,0,0,0,15,5.18a2.31,2.31,0,0,0,.24,1.07,1.85,1.85,0,0,0,.64.74,1.82,1.82,0,0,0,1,.26,2.13,2.13,0,0,0,1-.24Z" transform="translate(-0.19 -1.41)"/></g></g></svg>